<svg width="85" height="71" viewBox="0 0 85 71" fill="none" xmlns="http://www.w3.org/2000/svg">
    <path d="M47.8565 15.8337C47.8565 24.5784 40.7518 31.6674 31.9876 31.6674C23.2235 31.6674 16.1188 24.5784 16.1188 15.8337C16.1188 7.08899 23.2235 0 31.9876 0C40.7518 0 47.8565 7.08899 47.8565 15.8337Z" fill="#FFBC39"/>
    <path d="M84.25 39.3326C84.25 48.0773 77.1453 55.1663 68.3812 55.1663C59.6171 55.1663 52.5124 48.0773 52.5124 39.3326C52.5124 30.5879 59.6171 23.4989 68.3812 23.4989C77.1453 23.4989 84.25 30.5879 84.25 39.3326Z" fill="#FFBC39"/>
    <path d="M73.8906 55.1663C73.8906 63.911 66.7859 71 58.0218 71C49.2577 71 42.153 63.911 42.153 55.1663C42.153 46.4216 49.2577 39.3326 58.0218 39.3326C66.7859 39.3326 73.8906 46.4216 73.8906 55.1663Z" fill="#FFBC39"/>
    <path d="M58.0218 50.3659C58.0218 59.1106 50.9171 66.1996 42.153 66.1996C33.3889 66.1996 26.2842 59.1106 26.2842 50.3659C26.2842 41.6212 33.3889 34.5322 42.153 34.5322C50.9171 34.5322 58.0218 41.6212 58.0218 50.3659Z" fill="#FFBC39"/>
    <path d="M44.8689 26.6734C44.8689 35.4181 37.7642 42.5071 29.0001 42.5071C20.236 42.5071 13.1313 35.4181 13.1313 26.6734C13.1313 17.9287 20.236 10.8397 29.0001 10.8397C37.7642 10.8397 44.8689 17.9287 44.8689 26.6734Z" fill="#FFBC39"/>
    <path d="M31.9876 32.9449C31.9876 41.6896 24.8829 48.7786 16.1188 48.7786C7.35471 48.7786 0.25 41.6896 0.25 32.9449C0.25 24.2002 7.35471 17.1112 16.1188 17.1112C24.8829 17.1112 31.9876 24.2002 31.9876 32.9449Z" fill="#FFBC39"/>
    <path d="M60.7378 31.6674C60.7378 40.4121 53.633 47.5011 44.8689 47.5011C36.1048 47.5011 29.0001 40.4121 29.0001 31.6674C29.0001 22.9227 36.1048 15.8337 44.8689 15.8337C53.633 15.8337 60.7378 22.9227 60.7378 31.6674Z" fill="#FFBC39"/>
    <path d="M70.5398 17.4065C71.255 26.122 64.7537 33.7658 56.0188 34.4794C47.2839 35.1929 39.6232 28.706 38.908 19.9905C38.1929 11.2749 44.6942 3.63114 53.429 2.91758C62.1639 2.20402 69.8247 8.69091 70.5398 17.4065Z" fill="#FFBC39"/>
    <path d="M49.1756 34.5322C49.1756 43.2769 42.0709 50.3659 33.3068 50.3659C24.5427 50.3659 17.438 43.2769 17.438 34.5322C17.438 25.7875 24.5427 18.6985 33.3068 18.6985C42.0709 18.6985 49.1756 25.7875 49.1756 34.5322Z" fill="#FFBC39"/>
</svg>
