<svg width="111" height="77" viewBox="0 0 111 77" fill="none" xmlns="http://www.w3.org/2000/svg">
    <path d="M32.7403 39.6112C40.4112 56.3053 40.6195 72.6003 33.2056 76.0069C25.7917 79.4135 13.5631 68.6419 5.89223 51.9477C-1.77862 35.2535 -1.98693 18.9586 5.42698 15.552C12.8409 12.1453 25.0695 22.917 32.7403 39.6112Z" fill="#3562FF"/>
    <path d="M56.806 34.6369C64.4769 51.331 64.6852 67.626 57.2712 71.0326C49.8573 74.4392 37.6287 63.6676 29.9579 46.9734C22.287 30.2792 22.0787 13.9843 29.4926 10.5776C36.9065 7.17101 49.1351 17.9427 56.806 34.6369Z" fill="#3562FF"/>
    <path d="M80.8716 29.6625C88.5425 46.3567 88.7508 62.6516 81.3369 66.0583C73.923 69.4649 61.6944 58.6932 54.0235 41.9991C46.3527 25.3049 46.1444 9.00996 53.5583 5.60333C60.9722 2.19669 73.2008 12.9684 80.8716 29.6625Z" fill="#3562FF"/>
    <path d="M104.937 24.6882C112.608 41.3824 112.816 57.6773 105.403 61.084C97.9886 64.4906 85.76 53.7189 78.0892 37.0247C70.4183 20.3306 70.21 4.03565 77.6239 0.62901C85.0378 -2.77763 97.2664 7.99405 104.937 24.6882Z" fill="#3562FF"/>
</svg>
