<svg width="82" height="81" viewBox="0 0 82 81" fill="none" xmlns="http://www.w3.org/2000/svg">
    <path d="M41.0932 0L43.902 18.4331L51.2082 1.27742L49.3432 19.8298L60.6878 5.02941L54.2661 22.5352L68.9361 11.0202L58.3612 26.3796L75.4349 18.8734L61.3713 31.1212L79.7759 28.0956L63.1073 36.4622L81.6863 38.1072L63.46 42.0671L81.0462 48.2793L62.4074 47.5835L77.8956 57.9726L60.0155 52.6649L72.4326 66.5782L56.4346 56.992L65.0004 73.5552L51.8898 60.2929L56.0661 78.4653L46.6666 62.3603L46.1909 81L41.0932 63.0641L35.9954 81L35.5198 62.3603L26.1203 78.4653L30.2966 60.2929L17.1859 73.5552L25.7517 56.992L9.75375 66.5782L22.1709 52.6649L4.29075 57.9726L19.779 47.5835L1.14018 48.2793L18.7263 42.0671L0.5 38.1072L19.0791 36.4622L2.41044 28.0956L20.815 31.1212L6.75146 18.8734L23.8252 26.3796L13.2503 11.0202L27.9203 22.5352L21.4986 5.02941L32.8431 19.8298L30.9781 1.27742L38.2843 18.4331L41.0932 0Z" fill="#9A74FF"/>
</svg>
