<svg width="69" height="60" fill="none" xmlns="http://www.w3.org/2000/svg"><g filter="url(#filter0_d_91_375)" fill-rule="evenodd" clip-rule="evenodd" fill="#fff"><path d="M19.818 27.94l.145-1.266c.148-1.235.617-2.747 1.253-3.766.052-.082.088-.119.142-.198l.476-.593c.36-.378.772-.688 1.244-.925.179-.091.279-.137.497-.207.16-.055.4-.146.572-.161-.1.207-.39 2.382-.421 2.628-.103.913-.17 1.899-.17 2.906-.103.052-.384.1-.508.137-.645.191-.86.222-1.517.483-.16.067-.3.125-.448.198l-.854.5c-.142.093-.27.188-.411.264zM4 7.152v-1.25c.027-.25.109-.475.315-.682.278-.277.626-.347 1.014-.478.381-.125.754-.2 1.16-.304A15.6 15.6 0 019.724 4h1.06c.701.024 1.383.097 2.006.228.76.155 1.953.499 2.643.9.124.074.254.131.385.21.541.332 1.077.694 1.534 1.138.055.052.088.089.14.14.257.259.505.511.723.797l.26.335c.119.18.246.329.349.523.075.14.142.231.224.368.302.518.517 1.096.702 1.668.203.623.33 1.29.406 1.965a14.703 14.703 0 01-.049 3.593c-.03.195-.066.21.03.347l.333.514c.391.63.733 1.284 1.018 1.968.078.195.193.402.239.606.157-.037.23-.125.378-.186l1.22-.438c.578-.17 1.217-.25 1.971-.25.478 0 .826.092 1.09.402.085.104.175.28.215.432.048.195.033.344.015.575l-.409 2.215c-.078.438-.27 1.898-.29 2.333l-.115 2.909c.003.158.03.194.03.365 0 .53.027 1.332.09 1.828.095.73.125 1.707.23 2.452.016.113.028.265.037.356.018.137.064.189.064.304 0 .195-.055.396-.121.557-.34.828-1.632.861-2.044-.048-.103-.229-.478-3.937-.478-4.433-.342.03-1.36.432-1.662.615l-.46.273c-.094.055-.143.104-.23.162a5.45 5.45 0 00-.215.152c-.082.06-.134.1-.21.158-.278.21-.565.432-.81.681-.088.085-.11.098-.206.162l.045.492c.021.146.033.356.04.496.027.63.275 1.324-.258 1.829-.478.45-1.302.37-1.683-.161-.203-.286-.215-.575-.251-1.02-.04-.462-.127-.998-.143-1.466-.033-1.18-.03-2.446.06-3.611.137-1.78.625-3.727 1.47-5.303.859-1.606 1.016-.931.662-1.81a7.243 7.243 0 00-.148-.335c-.058-.125-.088-.204-.142-.337a15.823 15.823 0 00-1-1.875c-.148.08-.345.15-.514.22-.524.212-1.063.377-1.617.52-1.071.276-1.892.362-3.066.362-.787 0-1.705-.17-2.301-.371-.72-.24-1.42-.533-2.05-.962-.072-.049-.139-.082-.205-.13-.137-.095-.26-.19-.391-.287a6.462 6.462 0 01-.708-.614c-.218-.22-.467-.432-.651-.673-.06-.075-.103-.109-.158-.182-.239-.307-.502-.627-.702-.961l-.254-.42a7.779 7.779 0 00-.24-.438c-.081-.134-.139-.299-.208-.438a10.744 10.744 0 01-.573-1.43 16.415 16.415 0 01-.774-3.88L4 7.152zm13.12 8.762c-.109.009-.29.1-.396.136-.14.05-.264.08-.412.122-.279.08-.524.158-.848.222-1.295.262-2.591.35-3.875-.06a5.684 5.684 0 01-1.431-.682l-.609-.432a1.003 1.003 0 01-.133-.119c-.14-.137-.34-.295-.548-.523-.06-.064-.067-.091-.127-.155a6.418 6.418 0 01-.793-1.068l-.79-1.576-.143-.392c-.306-.9-.463-1.585-.614-2.571a18.214 18.214 0 01-.121-.952l-.034-.761c-.006-.106-.027-.137-.027-.252.294-.07.575-.162.872-.226 1.498-.307 2.031-.368 3.623-.368.59 0 1.124.07 1.623.177.242.051.472.118.72.18.264.063.455.154.688.24.351.127.375.173.627.273.499.204.953.588 1.37.91.316.24.833.885 1.057 1.223.073.107.1.18.17.283.073.113.1.167.16.289.297.596.312.715.515 1.32.121.365.276 1.117.315 1.518l.06.87c-.075-.018-.75-.654-.85-.754l-.424-.362c-.727-.572-1.856-1.372-2.63-1.792-.089-.049-.161-.091-.252-.14l-3.478-1.73c-.757-.326-1.553.361-1.553.912 0 .359.02.508.242.83.112.165.315.308.508.393.115.048.212.085.318.13l1.356.643c.358.173 1.865.985 2.162 1.19.481.325.826.504 1.35.9l1.005.797c.224.176 1.199 1.134 1.347 1.357zm33.664 18.068c.511 0 1.056-.067 1.435-.195a2.284 2.284 0 001.017-.617l.33-.487a3.5 3.5 0 00.23-.587c.17-.673.224-1.893.127-2.653-.085-.642-.124-1.342-.194-1.978-.257-2.358-.363-4.363.394-6.644.442-1.33 1.253-2.48 2.231-3.462.403-.405.554-.518.554-1.135 0-.265-.17-.557-.342-.73a1.125 1.125 0 00-.315-.22c-.33-.133-.787-.106-1.06.098-.454.338-1.032 1.025-1.422 1.482-.194.228-.358.486-.536.73-.487.657-.85 1.436-1.153 2.2-.33.827-.554 1.76-.679 2.652-.015.122-.024.244-.045.378-.018.133-.006.261-.027.395-.146.974.042 3.432.133 4.274.045.408.097.837.14 1.272.05.542.28 2.212-.076 2.699-.412.562-1.46.106-1.823-.17-.151-.116-.315-.241-.445-.372-.306-.313-.7-.74-.926-1.104-.064-.104-.094-.159-.167-.256-.357-.477-.581-1.046-.847-1.576-.218-.429-.406-1.01-.548-1.481-.037-.113-.07-.195-.106-.317-.345-1.22-.464-2.19-.572-3.492-.04-.475.096-1.774.193-2.258.167-.842.367-1.783.715-2.558l.242-.575c.27-.536.509-1.093.893-1.558.39-.475.518-.654.98-1.046.67-.563.558-1.61-.238-1.972-.427-.198-.797-.091-1.154.177l-.68.611c-.43.52-.858 1.037-1.203 1.616a8.62 8.62 0 00-.366.678 15.518 15.518 0 00-1.471 4.706c-.085.59-.14 1.281-.16 1.899l.039.976c.048.323.063.618.109.934.042.283.087.59.136.883.218 1.271.608 2.37 1.072 3.55.384.98 1.053 2.127 1.713 2.939.351.432.723.81 1.15 1.159l.433.328c.418.305.881.512 1.387.67.19.058.65.137.902.137zM26.732 52.841c.23 0 .503-.107.645-.198l.442-.401c.563-.575 1.093-1.178 1.538-1.847l1.162-2.245c.784-2.19.857-4.132.681-6.462l-.281-2.653c-.064-.56-.4-2.343.375-2.644.09-.036.309-.076.43-.06.13.018.29.039.409.072.136.037.218.083.342.134.93.39 1.865 1.753 2.3 2.574l.318.639c.218.435.4.922.57 1.378.535 1.448.79 3.033.79 4.597 0 1.424-.455 3.587-1.096 4.913-.04.08-.076.174-.112.256-.288.67-.802 1.503-1.33 2.023-.066.067-.111.122-.184.183-.378.304-.736.596-.736 1.207 0 .128.052.323.094.417.143.314.476.657.863.657.503 0 .608-.042.98-.343l.361-.314c.082-.07.112-.143.197-.225l.95-1.193c.13-.176.221-.343.337-.535.448-.745.79-1.549 1.062-2.376.076-.225.151-.405.218-.63.345-1.122.615-2.537.615-3.73 0-.985.009-1.548-.13-2.519-.037-.243-.067-.42-.11-.654-.317-1.688-.92-3.568-1.798-5.053l-.281-.48c-.233-.393-.533-.722-.812-1.078l-.178-.216c-.115-.13-.252-.255-.379-.38l-.393-.368c-.158-.15-.354-.274-.53-.399-.042-.027-.067-.051-.115-.082a4 4 0 00-1.959-.715c-.442-.033-.36.006-.705.003-.372-.003-.99.146-1.244.271l-.358.207c-.526.338-.81.88-.971 1.509-.118.474-.203 1.22-.13 1.746.015.131-.003.259.009.387l.239 2.214c.07.512.06.962.136 1.473.049.34.073 1.183.073 1.567 0 1.1-.182 2.71-.582 3.732-.411 1.047-.738 1.64-1.407 2.544-.067.091-.097.115-.167.198l-.69.745c-.348.347-.554.41-.554 1.08 0 .447.285.815.645.961.097.04.32.113.451.113zm20.595.931c-.47 0-.73-.094-1.048-.417-.412-.417-.448-.514-.723-.995-.127-.219-.115-.219-.21-.468-.471-1.266-.263-2.744.186-3.93.29-.77.572-1.2 1.04-1.838l.694-.743c.085-.067.103-.079.179-.158.3-.298 1.171-.785 1.583-.95.288-.115.811-.242 1.193-.242 0 .508-.079.994-.112 1.469-.037.569-.29 2.279-.388 2.775-.042.234-.081.425-.12.666-.104.602-.6 2.692-.752 3.197-.115.368-.311.788-.544 1.035-.194.2-.07.149-.41.38-.15.1-.33.219-.568.219zm-.197 2.257c.911 0 1.35-.158 2.046-.626.258-.17.43-.323.645-.536.064-.067.073-.076.13-.152.349-.447.566-.721.812-1.302l.187-.405.367-1.439c.193-.727.481-2.163.614-2.969.433-2.616.584-4.29.594-7.137.003-.225-.03-.332-.028-.536.006-1.478-.227-3.647-.466-5.096-.054-.337-.121-.587-.312-.785-.333-.343-.487-.389-.935-.389-.267 0-.52.14-.7.314-.484.465-.326 1.022-.239 1.536l.191 1.415c.064.453.09 1.034.148 1.46l.064 1.15c0 .182.027.243.03.392.003.131-.003.268-.003.399.003.161.03.213.03.392-.947 0-2.337.45-3.124.928-.43.259-1.06.685-1.407 1.044-.082.085-.13.106-.21.182-.075.07-.142.137-.211.21-.079.082-.1.131-.182.213-.09.091-.118.128-.197.225-.396.49-.526.663-.838 1.193l-.285.532c-.605 1.08-1.102 2.951-.993 4.256.049.588 0 .816.176 1.46.236.865.518 1.516 1.023 2.249.115.167.233.292.36.456a.5.5 0 00.094.1c.027.025.024.019.049.04.393.356.687.67 1.265.9.209.083.357.171.587.229.194.052.497.097.718.097zM32.35 24.043c0-1.71.527-4.853.945-6.532.07-.286.394-1.63.478-1.832.137-.316.33-.639.54-.9.299-.374.747-.651 1.246-.508 1.042.298 1.76 1.703 1.878 2.799.07.657.033 1.016-.064 1.685-.055.38-.24 1.117-.406 1.457-.145.305-.272.64-.469.94-.257.387-.248.405-.578.83-.394.506-1.172 1.212-1.762 1.507-.93.462-1.72.514-1.807.554zm-.76 9.318c.403 0 .627-.079.851-.304.212-.21.337-.408.367-.736.024-.286-.076-.621-.133-.925-.061-.329-.091-.615-.14-.959l-.27-3.033c-.005-.365 0-.736 0-1.101.93-.08 1.542-.22 2.38-.575l.357-.152a5.93 5.93 0 00.939-.55c.218-.15.648-.478.826-.664.11-.113.264-.22.394-.368.73-.83 1.244-1.524 1.71-2.546.055-.122.094-.22.152-.357.381-.918.69-2.026.69-3.316 0-1.067-.248-2.196-.684-3.066-.245-.487-.639-1.101-1.023-1.485-.633-.633-1.593-1.235-2.537-1.235-.815 0-1.426.176-2.09.608-.432.283-.886.819-1.18 1.242-.112.16-.457.77-.533.964l-.193.736c-.155.633-.34 1.263-.488 1.938-.075.341-.118.648-.197.989-.081.35-.13.648-.187 1.025-.049.323-.124.679-.179 1.035-.306 2.002-.393 4.052-.402 6.2-.003.216.027.307.027.508 0 .17-.01.368 0 .535.006.125.024.119.027.253.027.922.124 1.433.197 2.29.057.667.166 1.272.266 1.905.058.374.106.563.315.785.164.17.42.36.739.36zM58.425 47.25l.302-1.984c.034-.25.04-.46.076-.715.03-.22.055-.49.07-.69.045-.536.115-1.29.115-1.808 0-.17.027-.204.027-.365.176-.04.348-.094.512-.134.187-.049.35-.094.526-.152.155-.052.321-.094.49-.155.173-.058.319-.125.476-.198.079-.036.148-.064.218-.094.033-.015.079-.034.115-.052l.969-.554c.148-.091.254-.191.406-.27 0 .27-.037.42-.058.65-.033.396-.218 1.473-.318 1.826-.415 1.415-.584 2.047-1.465 3.188l-.357.374c-.073.058-.115.116-.185.18-.218.195-.602.438-.86.578a3.737 3.737 0 01-.5.204l-.56.17zM65 38.191v.724c-.003.466-.012.877-.03 1.047l-.064.782c-.194 1.345-.188 1.49-.53 2.83-.115.456-.127.443-.263.863a9.72 9.72 0 01-.693 1.56c-.409.764-1.096 1.604-1.777 2.14l-.642.459c-.76.41-.639.377-1.56.69-.795.271-1.588.305-2.421.305-.681 0-1.262-.636-1.08-1.339.018-.067.027-.13.039-.185l.484-2.875c.206-1.458.279-2.617.279-4.126l-.03-1.101c.002-.164-.022-.207-.028-.338l-.085-1.411c-.051-.651-.17-1.357-.224-2.005-.04-.469-.151-.959.076-1.366.066-.122.136-.21.236-.298.409-.344.945-.439 1.387-.1.148.112.29.27.372.446.115.244.251 1.744.309 2.2l.206 2.251c.118-.009.32-.076.423-.11a7.001 7.001 0 002.316-1.228l.978-.828c.064-.079.052-.067.049-.204l-.08-.94c-.02-.173-.02-.298-.042-.465-.084-.63-.072-.907.436-1.327.442-.362 1.239-.252 1.602.323.166.27.203.757.242 1.14.045.439.051.895.088 1.324.015.192.024.654.027 1.162z"/><path d="M23.02 49.002c.47 0 .809-.028 1.254-.125a4 4 0 00.893-.32 5.363 5.363 0 001.556-1.144c.063-.07.073-.1.142-.17.651-.672 1.299-2.005 1.299-2.957 0-.484.036-1.074-.133-1.506-.494-1.256-.887-1.786-2.153-2.352-.965-.435-1.922-.346-2.921-.216l-1.114.064c-.796 0-1.256-.204-1.644-.864a1.404 1.404 0 01-.16-.347c-.194-.593-.288-1.1-.006-1.679a.84.84 0 01.214-.292c.1-.082.2-.152.321-.216.509-.259 1.06-.322 1.777-.27.703.051 1.75.346 2.362.76.206.137.424.31.76.31a1.143 1.143 0 00.52-2.16c-.375-.228-.596-.398-1.05-.581-1.226-.493-1.774-.59-3.21-.59-.865 0-1.912.267-2.578.767-.097.073-.194.118-.279.2-.554.527-.911 1.023-1.096 1.777-.272 1.095-.175 1.865.245 2.933.252.636.748 1.332 1.293 1.75.854.653 1.813.766 2.867.735l.863-.067c.175-.024.369-.006.569-.02.184-.016.351-.056.563-.056.957 0 1.77.484 1.77 1.497 0 .648-.199 1.144-.577 1.65-.3.4-.651.732-1.117.967-.454.225-.797.261-1.311.261-.881 0-1.699-.45-2.286-1.037a4.321 4.321 0 01-.62-.816c-.176-.319-.303-.827-.433-1.004a1.123 1.123 0 00-2.059.654c0 .22.058.341.118.506.052.143.11.298.173.447.163.362.445.879.687 1.174.545.66.811.995 1.604 1.494.8.505 1.85.843 2.897.843zm35.096-21.09h.339c1.38 0 3.188-.58 3.887.64.406.708.62 1.959-.218 2.512-.566.371-1.196.347-1.87.347-.836 0-1.763-.332-2.395-.755-.258-.173-.433-.316-.809-.316-.56 0-1.096.508-1.096 1.156 0 .62.46.922.903 1.208.093.06.175.094.272.152.415.256 1.396.578 1.883.675 1.023.204 2.28.201 3.309-.097a3.487 3.487 0 001.32-.678c.127-.1.396-.374.49-.496.26-.34.115-.143.29-.441.328-.548.524-1.272.524-1.987 0-.791-.302-1.78-.687-2.419-.063-.106-.127-.197-.2-.304-.596-.864-1.743-1.597-3.103-1.597h-.45c-.975 0-2.74.426-3.394-.234-.142-.143-.248-.228-.345-.414-.39-.767-.037-1.655.39-2.294.442-.666 1.266-1.293 2.198-1.293 1.011 0 2.17.484 2.764 1.287.37.496.463.63.681 1.266.04.121.088.228.158.319.787 1.007 2.043.359 2.043-.584 0-.615-.439-1.427-.742-1.883a5.8 5.8 0 00-.245-.344c-.09-.125-.188-.228-.275-.344-.112-.146-.47-.48-.63-.608-.197-.155-.67-.502-.9-.624-1.192-.642-2.551-.958-3.895-.602-.966.255-1.668.645-2.38 1.363-.414.413-.784.94-1.047 1.46-.52 1.016-.766 2.756-.158 3.77.134.218.11.249.336.596.158.237.343.425.557.599.291.234.285.25.654.471.415.25 1.263.493 1.84.493zm-18.121 5.814c1.01 0 2.21-.194 3.163-.435l1.368-.432c1.13-.474.851-2.181-.402-2.181-.3 0-2.295.763-3.878.763-.79 0-1.402-.009-2.074-.374-.121-.067-.166-.118-.275-.204-.536-.422-.551-1.436-.152-2.132.034-.055.094-.15.137-.204.411-.52 1.807-1.628 2.237-2.184.06-.08.1-.107.163-.174.052-.06.097-.125.149-.189.578-.742.899-1.265 1.304-2.077.037-.073.079-.152.112-.226a17.6 17.6 0 00.815-2.26c.1-.356.175-.706.269-1.083.097-.377.154-.782.23-1.153.079-.393.433-3.024.43-3.663-.003-.453.054-.818.054-1.357 0-.757-.983-1.472-1.858-.74-.052.046-.13.15-.164.205-.218.359-.178.754-.197 1.299-.015.553-.2 2.22-.272 2.72-.185 1.283-.39 2.424-.8 3.656-.223.676-.526 1.455-.892 2.066-.33.55-.351.593-.742 1.12-.197.268-.65.751-.884.976l-.787.706c-.49.5-.578.496-1.108 1.144-.857 1.037-.942 2.927-.37 4.138.325.681 1.003 1.338 1.663 1.66.118.059.236.122.384.18a6.754 6.754 0 002.377.435zm-1.52 3.587c.387 0 .593-.088.987-.222.648-.22 1.955-.511 2.64-.511.908 0 1.12-.037 2.013.262.45.152.856.617.95 1.05.112.528-.027 1.158-.357 1.56-.3.365-.49.502-.817.79-.073.065-.121.129-.194.199l-.633.578c-.508.508-.526.55-.956 1.043l-.185.237c-.127.159-.224.308-.34.478a10.708 10.708 0 00-1.101 2.114c-.524 1.324-.602 1.75-.938 3.122-.125.514-.406 2.233-.449 2.768-.075 1.004-.227 1.993-.227 3.018 0 .533.479 1.102 1.069 1.102.378 0 .578-.055.836-.317.09-.094.16-.161.224-.286.172-.347.105-.952.15-1.369.034-.28.065-.648.083-.937.018-.298.06-.627.084-.93.052-.597.297-2 .427-2.62.127-.603.26-1.01.427-1.603.206-.734.684-1.808 1.09-2.462.073-.118.115-.21.19-.316.073-.104.134-.186.21-.301.148-.225.387-.493.572-.694.187-.204.327-.414.62-.648l1.569-1.472c.311-.372.584-.767.744-1.287.233-.764.242-1.829-.012-2.65-.106-.353-.315-.703-.53-.992-.082-.11-.13-.18-.227-.28-.542-.535-.841-.715-1.529-1.007-.084-.033-.093-.045-.178-.073-1.205-.362-1.414-.338-2.67-.338-.942 0-1.971.253-2.73.448-.243.06-.997.28-1.197.38a1.212 1.212 0 00-.433.353c-.417.56-.233 1.393.406 1.691.09.043.3.122.412.122zm15.709 11.801c.278 0 .635-.176.778-.32l.223-.31c.164-.31.36-1.95.4-2.367.127-1.344.285-2.64.285-4.119 0-.404.033-.666 0-1.046-.024-.32-.003-.767 0-1.099l-.058-1.043a34.87 34.87 0 00-.284-3.018c-.067-.466-.185-.776-.624-1.013a1.1 1.1 0 00-1.571.718c-.082.359.078 1.165.118 1.649.23 2.802.306 4.843.006 7.651-.088.837-.16 1.506-.297 2.328-.106.635-.242 1.183.23 1.657.194.195.49.332.794.332zM28.106 33.389c.715 0 1.154-.487 1.154-1.214 0-.238-.058-.42-.094-.642-.103-.633-.27-2.07-.3-2.69-.036-.754-.085-1.497-.085-2.26l.119-2.592c.027-.262.057-.539.081-.822.043-.51.127-1.1.224-1.579l.306-1.527c0-.48-.284-.867-.693-1.025-.466-.186-.875-.122-1.223.228-.333.332-.436 1.187-.518 1.68-.057.322-.118.63-.17.93l-.314 2.96c-.052.597-.03 1.6-.03 2.2 0 1.3.127 2.51.257 3.694.066.587.157 1.162.248 1.728.085.529.542.93 1.038.93zm25.009 20.496a1.13 1.13 0 001.03-.718c.044-.116.06-.207.099-.323.033-.11.073-.231.106-.347.09-.325.209-1.062.306-1.47.287-1.231-1.126-1.928-1.89-1.107-.241.262-.238.432-.335.819l-.315 1.436c-.1.401-.124.2-.124.666 0 .304.184.569.342.727.16.158.478.317.78.317zM29.006 18.454c.832 0 1.059-.758 1.19-1.433.017-.107.032-.231.06-.362.024-.13.057-.231.087-.362.185-.73.464-1.35-.236-1.914-.511-.41-1.18-.228-1.483.128-.185.222-.294.536-.37.843-.145.569-.196.94-.314 1.494-.085.416-.182.924.254 1.293.149.121.124.146.345.219.124.04.318.094.466.094z"/></g><defs><filter id="filter0_d_91_375" x=".152" y=".152" width="68.695" height="59.725" filterUnits="userSpaceOnUse" color-interpolation-filters="sRGB"><feFlood flood-opacity="0" result="BackgroundImageFix"/><feColorMatrix in="SourceAlpha" values="0 0 0 0 0 0 0 0 0 0 0 0 0 0 0 0 0 0 127 0" result="hardAlpha"/><feOffset/><feGaussianBlur stdDeviation="1.924"/><feComposite in2="hardAlpha" operator="out"/><feColorMatrix values="0 0 0 0 1 0 0 0 0 1 0 0 0 0 1 0 0 0 1 0"/><feBlend in2="BackgroundImageFix" result="effect1_dropShadow_91_375"/><feBlend in="SourceGraphic" in2="effect1_dropShadow_91_375" result="shape"/></filter></defs></svg>