<svg width="24" height="24" fill="none" xmlns="http://www.w3.org/2000/svg"><path fill-rule="evenodd" clip-rule="evenodd" d="M5.712.048a6.719 6.719 0 00-2.41.797 6.5 6.5 0 00-3.25 4.93c-.07.621-.07 11.821 0 12.443a6.49 6.49 0 005.729 5.73c.62.07 11.817.07 12.438 0a6.49 6.49 0 005.73-5.73c.068-.622.068-11.822 0-12.443a6.49 6.49 0 00-5.73-5.73C17.668-.017 6.251-.014 5.712.048zm13.553 3.145c.703.21 1.24.828 1.36 1.563.14.868-.389 1.772-1.224 2.09a1.948 1.948 0 01-2.078-.477c-1.083-1.157-.409-3.03 1.168-3.247.186-.025.57.01.774.07zm-.68 1.337c-.15.034-.348.25-.379.414-.063.34.27.674.61.61a.524.524 0 00.415-.485c0-.1-.025-.227-.055-.284-.098-.182-.38-.303-.591-.255zm-5.723.973c1.45.193 2.704.817 3.759 1.872a6.49 6.49 0 010 9.244 6.485 6.485 0 01-9.242 0 6.49 6.49 0 010-9.244C8.854 5.9 10.817 5.23 12.862 5.503zm-1.64 1.405a5.1 5.1 0 00-2.855 1.454 5.121 5.121 0 000 7.268c.208.208.557.497.776.643a5.117 5.117 0 006.49-.643 5.121 5.121 0 000-7.268 5.117 5.117 0 00-4.411-1.454z" fill="#fff"/></svg>