<svg width="24" height="24" fill="none" xmlns="http://www.w3.org/2000/svg"><path fill-rule="evenodd" clip-rule="evenodd" d="M4.522.155C3.639.663.94 3.78.171 5.178c-.182.332-.19.364-.155.705.117 1.146.626 2.793 1.33 4.296.775 1.656 2.086 3.639 3.578 5.41.76.904 2.543 2.69 3.43 3.437 3.205 2.703 6.434 4.393 9.343 4.892.262.045.55.082.639.082.307 0 1.154-.545 2.433-1.564 1.651-1.317 2.95-2.603 3.174-3.141.178-.43-.172-.836-1.454-1.684-1.858-1.23-3.59-2.203-4.408-2.478-.383-.128-.412-.131-.604-.051-.259.108-.43.272-1.167 1.123-.332.383-.712.8-.843.928l-.24.231-.342-.088c-1.117-.289-2.625-1.076-3.877-2.025-.554-.42-1.487-1.323-2.002-1.938-.972-1.16-1.894-2.836-2.265-4.115l-.12-.417.29-.298c.16-.163.555-.522.88-.796.747-.633 1.018-.913 1.122-1.161.076-.183.074-.224-.027-.55-.3-.971-2.494-4.665-3.287-5.533-.44-.483-.644-.537-1.077-.288zm8.332.702v.857h.255c1.116.003 2.598.363 3.75.911 1.965.937 3.45 2.39 4.408 4.313.6 1.204.855 2.111.976 3.468l.065.737H24v-.236c0-.411-.104-1.325-.221-1.934-.317-1.656-1.2-3.546-2.251-4.817-1.92-2.321-4.492-3.733-7.43-4.077A12.181 12.181 0 0013.135 0h-.282v.857zm0 4.27v.858l.424.035c1.25.104 2.335.624 3.247 1.556.867.885 1.35 1.932 1.454 3.152l.035.415h1.7v-.221c0-.739-.33-2.048-.701-2.788-.654-1.303-1.814-2.476-3.078-3.112a6.973 6.973 0 00-2.593-.715l-.488-.037v.857z" fill="#fff"/></svg>