<svg width="24" height="24" fill="none" xmlns="http://www.w3.org/2000/svg"><path fill-rule="evenodd" clip-rule="evenodd" d="M11.131.008C9.317.184 7.95.576 6.465 1.343a11.947 11.947 0 00-5.226 5.325c-.435.88-.64 1.418-.867 2.28C.086 10.037.002 10.698 0 11.9c-.001.599.023 1.249.057 1.501.256 1.923.86 3.58 1.87 5.131l.337.517-.748 2.205c-.411 1.212-.741 2.21-.733 2.218.008.008 1.036-.312 2.286-.71 1.249-.4 2.288-.726 2.308-.726.02 0 .213.11.429.243.215.133.666.374 1.002.535a12.013 12.013 0 009.622.344 12.108 12.108 0 007.199-8.12c.296-1.124.371-1.74.371-3.044 0-1.305-.075-1.921-.371-3.045-1.134-4.305-4.59-7.652-8.95-8.668-.732-.17-1.495-.257-2.42-.274-.517-.01-1.024-.01-1.128 0zM8.265 5.576a.73.73 0 01.243.254c.14.25 1.282 2.998 1.315 3.165.043.212-.165.574-.632 1.098-.488.547-.593.723-.55.92.08.358 1.166 1.798 1.836 2.43 1.039.983 2.61 1.915 3.31 1.966.36.026.49-.076 1.04-.807.25-.332.517-.666.592-.741.182-.181.45-.22.753-.108.387.144 2.753 1.295 2.919 1.42l.16.12-.027.497c-.068 1.277-.516 1.94-1.702 2.516-1.127.548-2.01.533-3.737-.064-2.318-.8-3.549-1.564-5.216-3.24a17.624 17.624 0 01-2.105-2.516C5.347 10.89 4.918 9.655 5.046 8.403c.102-1.004.453-1.745 1.163-2.454.343-.342.792-.484 1.468-.461.287.01.497.041.588.088z" fill="#fff"/></svg>