<svg width="34" height="24" fill="none" xmlns="http://www.w3.org/2000/svg"><path fill-rule="evenodd" clip-rule="evenodd" d="M6.076.067C4.277.325 2.538 1.343 1.445 2.778c-.413.542-1 1.736-1.175 2.387-.248.93-.27 1.483-.27 6.83 0 5.347.022 5.899.27 6.83.174.651.762 1.845 1.175 2.387 1.115 1.463 2.83 2.455 4.693 2.714.713.099 21.011.099 21.724 0 1.863-.259 3.578-1.25 4.693-2.714.413-.542 1-1.736 1.175-2.387.248-.931.27-1.483.27-6.83 0-5.347-.022-5.9-.27-6.83-.174-.651-.762-1.845-1.175-2.387C31.44 1.315 29.725.323 27.862.064 27.235-.023 6.682-.02 6.076.067zm11.396 9.351c2.534 1.282 4.675 2.39 4.758 2.465.179.162.19.317.033.493-.097.11-8.807 4.298-9.406 4.524-.152.057-.224.05-.348-.031l-.157-.103v-4.76c0-3.613.019-4.778.08-4.838.043-.044.158-.08.255-.08.1 0 2.174 1.01 4.785 2.33z" fill="#fff"/></svg>