<svg width="85" height="71" fill="none" xmlns="http://www.w3.org/2000/svg"><path d="M47.856 15.834c0 8.744-7.104 15.833-15.868 15.833s-15.87-7.089-15.87-15.833C16.119 7.089 23.225 0 31.989 0s15.868 7.089 15.868 15.834zM84.25 39.333c0 8.744-7.105 15.833-15.869 15.833s-15.869-7.089-15.869-15.833c0-8.745 7.105-15.834 15.87-15.834 8.763 0 15.868 7.089 15.868 15.834z" fill="#FFBC39"/><path d="M73.89 55.166C73.89 63.911 66.787 71 58.023 71s-15.869-7.089-15.869-15.834c0-8.744 7.105-15.833 15.869-15.833S73.89 46.422 73.89 55.166z" fill="#FFBC39"/><path d="M58.022 50.366c0 8.745-7.105 15.834-15.869 15.834s-15.869-7.09-15.869-15.834c0-8.745 7.105-15.834 15.869-15.834s15.869 7.09 15.869 15.834z" fill="#FFBC39"/><path d="M44.869 26.673c0 8.745-7.105 15.834-15.869 15.834s-15.869-7.089-15.869-15.834c0-8.744 7.105-15.833 15.87-15.833 8.763 0 15.868 7.089 15.868 15.833z" fill="#FFBC39"/><path d="M31.988 32.945c0 8.745-7.105 15.834-15.87 15.834C7.356 48.779.25 41.689.25 32.945.25 24.2 7.355 17.11 16.119 17.11s15.869 7.09 15.869 15.834z" fill="#FFBC39"/><path d="M60.738 31.667c0 8.745-7.105 15.834-15.87 15.834C36.106 47.501 29 40.412 29 31.667c0-8.744 7.105-15.833 15.869-15.833s15.869 7.089 15.869 15.833z" fill="#FFBC39"/><path d="M70.54 17.407c.715 8.715-5.786 16.359-14.521 17.072-8.735.714-16.396-5.773-17.111-14.488-.715-8.716 5.786-16.36 14.521-17.073 8.735-.714 16.396 5.773 17.11 14.489z" fill="#FFBC39"/><path d="M49.176 34.532c0 8.745-7.105 15.834-15.87 15.834-8.763 0-15.868-7.09-15.868-15.834S24.543 18.7 33.307 18.7s15.869 7.088 15.869 15.833z" fill="#FFBC39"/></svg>