<svg width="111" height="77" fill="none" xmlns="http://www.w3.org/2000/svg"><path d="M32.74 39.611c7.671 16.694 7.88 32.99.466 36.396-7.414 3.406-19.643-7.365-27.314-24.06-7.67-16.694-7.879-32.988-.465-36.395 7.414-3.407 19.643 7.365 27.313 24.06z" fill="#3562FF"/><path d="M56.806 34.637c7.67 16.694 7.88 32.989.465 36.396-7.414 3.406-19.642-7.365-27.313-24.06-7.671-16.694-7.88-32.989-.465-36.395 7.414-3.407 19.642 7.365 27.313 24.059z" fill="#3562FF"/><path d="M80.872 29.663c7.67 16.694 7.879 32.989.465 36.395C73.923 69.465 61.694 58.693 54.023 42c-7.67-16.694-7.879-32.989-.465-36.396 7.414-3.406 19.643 7.365 27.314 24.06z" fill="#3562FF"/><path d="M104.937 24.688c7.671 16.694 7.879 32.99.466 36.396-7.414 3.407-19.643-7.365-27.314-24.06C70.42 20.332 70.21 4.037 77.624.63c7.414-3.407 19.642 7.365 27.313 24.06z" fill="#3562FF"/></svg>