<svg width="82" height="81" fill="none" xmlns="http://www.w3.org/2000/svg"><path d="M41.093 0l2.809 18.433 7.306-17.156-1.865 18.553 11.345-14.8-6.422 17.505 14.67-11.515-10.575 15.36 17.074-7.507L61.37 31.121l18.405-3.025-16.669 8.366 18.58 1.645-18.227 3.96 17.586 6.212-18.639-.696 15.489 10.39-17.88-5.308 12.417 13.913-15.998-9.586L65 73.555 51.89 60.293l4.176 18.172-9.4-16.105L46.192 81l-5.098-17.936L35.995 81l-.475-18.64-9.4 16.105 4.177-18.172-13.111 13.262 8.566-16.563-15.998 9.586L22.17 52.665 4.29 57.973l15.488-10.39-18.639.696 17.586-6.212L.5 38.107l18.58-1.645-16.67-8.366 18.405 3.025L6.751 18.873l17.074 7.507L13.25 11.02l14.67 11.515L21.5 5.03l11.344 14.8-1.865-18.552 7.306 17.156L41.094 0z" fill="#9A74FF"/></svg>