<svg width="69" height="60" viewBox="0 0 69 60" fill="none" xmlns="http://www.w3.org/2000/svg">
    <g filter="url(#filter0_d_91_375)">
        <path fill-rule="evenodd" clip-rule="evenodd" d="M19.8176 27.9397L19.9629 26.6741C20.1113 25.439 20.5805 23.9269 21.2162 22.9078C21.2677 22.8256 21.304 22.7891 21.3585 22.71L21.8338 22.1168C22.194 21.7395 22.6058 21.4292 23.078 21.1919C23.2566 21.1006 23.3565 21.055 23.5745 20.985C23.7349 20.9303 23.9741 20.839 24.1466 20.8238C24.0467 21.0307 23.7561 23.2059 23.7259 23.4523C23.6229 24.365 23.5563 25.3507 23.5563 26.3577C23.4534 26.4095 23.1719 26.4581 23.0477 26.4946C22.4029 26.6863 22.188 26.7167 21.5311 26.9784C21.3706 27.0453 21.2314 27.1031 21.083 27.1761L20.2293 27.6751C20.087 27.7694 19.9599 27.8637 19.8176 27.9397ZM4 7.15171L4 5.90132C4.02724 5.65185 4.10898 5.42672 4.31484 5.21984C4.59335 4.94299 4.94149 4.87302 5.32898 4.7422C5.71042 4.61747 6.08278 4.54142 6.48843 4.43798C7.46625 4.19155 8.59543 4.03639 9.72461 3.99989L10.7842 3.99989C11.4865 4.02422 12.1676 4.09724 12.7913 4.22805C13.5511 4.38321 14.7439 4.72699 15.4341 5.12857C15.5582 5.20159 15.6884 5.25939 15.8186 5.33849C16.3604 5.6701 16.8963 6.03214 17.3534 6.47631C17.4079 6.52803 17.4412 6.56454 17.4927 6.61626C17.75 6.87485 17.9982 7.12736 18.2162 7.41334L18.4765 7.748C18.5946 7.92749 18.7217 8.07656 18.8247 8.27127C18.9003 8.41121 18.9669 8.50249 19.0487 8.63939C19.3514 9.15659 19.5664 9.73461 19.751 10.3066C19.9538 10.9302 20.081 11.5965 20.1567 12.2719C20.2838 13.4158 20.2747 14.7392 20.1082 15.8649C20.078 16.0596 20.0416 16.0748 20.1385 16.2117L20.4715 16.7258C20.862 17.3556 21.2041 18.0097 21.4887 18.6942C21.5674 18.8889 21.6824 19.0958 21.7278 19.2996C21.8853 19.2631 21.9579 19.1749 22.1063 19.114L23.3263 18.6759C23.9045 18.5056 24.5432 18.4265 25.297 18.4265C25.7753 18.4265 26.1235 18.5177 26.3868 18.8281C26.4716 18.9315 26.5624 19.1079 26.6018 19.2601C26.6502 19.4548 26.6351 19.6038 26.6169 19.8351L26.2082 22.0498C26.1295 22.4879 25.9388 23.9482 25.9176 24.3833L25.8026 27.2917C25.8056 27.4499 25.8329 27.4864 25.8329 27.6568C25.8329 28.1862 25.8601 28.9893 25.9237 29.4852C26.0175 30.2154 26.0478 31.192 26.1537 31.9373C26.1689 32.0499 26.181 32.202 26.1901 32.2933C26.2082 32.4302 26.2536 32.4819 26.2536 32.5975C26.2536 32.7922 26.1992 32.993 26.1326 33.1542C25.7935 33.9817 24.5008 34.0152 24.0891 33.1056C23.9862 32.8774 23.6108 29.1688 23.6108 28.6729C23.2687 28.7034 22.2516 29.1049 21.9488 29.2875L21.4887 29.5613C21.3948 29.616 21.3464 29.6647 21.2586 29.7225C21.1738 29.7803 21.1254 29.8138 21.0437 29.8746C20.9619 29.9355 20.9105 29.975 20.8348 30.0328C20.5563 30.2428 20.2687 30.4648 20.0235 30.7143C19.9357 30.7995 19.9145 30.8117 19.8176 30.8756L19.863 31.3684C19.8842 31.5144 19.8963 31.7244 19.9024 31.8643C19.9296 32.4941 20.1779 33.1877 19.6451 33.6927C19.1667 34.143 18.3433 34.0639 17.9619 33.5315C17.7591 33.2455 17.7469 32.9565 17.7106 32.5123C17.6713 32.0499 17.5835 31.5144 17.5683 31.0459C17.535 29.8655 17.5381 28.5999 17.6289 27.4347C17.7651 25.655 18.2525 23.7079 19.0971 22.132C19.9569 20.5257 20.1143 21.201 19.7601 20.3218C19.7177 20.2214 19.6663 20.0997 19.6118 19.9872C19.5542 19.8624 19.524 19.7833 19.4695 19.6495C19.2788 19.1901 18.746 18.1922 18.4705 17.7754C18.3221 17.8545 18.1254 17.9245 17.9558 17.9945C17.4321 18.2074 16.8932 18.3717 16.3393 18.5147C15.2676 18.7915 14.4472 18.8767 13.2726 18.8767C12.4855 18.8767 11.5682 18.7064 10.9719 18.5056C10.2514 18.2652 9.55206 17.9732 8.92238 17.5442C8.84972 17.4955 8.78312 17.4621 8.71652 17.4134C8.5803 17.3191 8.45618 17.2248 8.326 17.1274C8.07474 16.9388 7.84164 16.738 7.61762 16.5129C7.39965 16.2938 7.15141 16.0809 6.96675 15.8405C6.9062 15.7645 6.86382 15.731 6.80933 15.658C6.57017 15.3507 6.3068 15.0313 6.107 14.6966L5.8527 14.2768C5.77399 14.1216 5.70437 13.9938 5.61355 13.8387C5.53181 13.7048 5.47429 13.5405 5.40466 13.4006C5.17762 12.9442 4.99598 12.4666 4.8325 11.9707C4.41474 10.7112 4.16347 9.41822 4.05752 8.09177L4 7.15171ZM17.1203 15.9135C17.0113 15.9227 16.8297 16.0139 16.7237 16.0504C16.5845 16.0991 16.4603 16.1295 16.312 16.1721C16.0335 16.2512 15.7883 16.3303 15.4644 16.3942C14.1687 16.6558 12.873 16.7441 11.5894 16.3334C11.093 16.1752 10.5904 15.944 10.1575 15.6519L9.54903 15.2199C9.4794 15.1651 9.47638 15.1621 9.41583 15.1012C9.27657 14.9643 9.07677 14.8061 8.86789 14.578C8.80734 14.5141 8.80129 14.4867 8.74074 14.4228C8.42288 14.079 8.19583 13.7596 7.94759 13.355L7.15747 11.779C7.106 11.6391 7.06362 11.5235 7.01518 11.3866C6.70943 10.4861 6.55201 9.80155 6.40064 8.81584C6.34918 8.49336 6.31285 8.17696 6.27955 7.8636L6.24625 7.10303C6.2402 6.99655 6.21901 6.96613 6.21901 6.85052C6.51265 6.78054 6.79419 6.68927 7.09087 6.62539C8.58938 6.31811 9.12218 6.25727 10.7145 6.25727C11.3049 6.25727 11.8377 6.32724 12.3372 6.43372C12.5794 6.48544 12.8094 6.55237 13.0577 6.61322C13.321 6.6771 13.5118 6.76837 13.7449 6.85356C14.096 6.98133 14.1202 7.02697 14.3715 7.12736C14.871 7.3312 15.3251 7.71453 15.7429 8.03701C16.0577 8.27735 16.5754 8.92232 16.7994 9.26002C16.8721 9.3665 16.8993 9.43951 16.9689 9.54295C17.0416 9.65551 17.0688 9.71028 17.1294 9.83197C17.4261 10.4283 17.4412 10.5469 17.644 11.1523C17.7651 11.5174 17.9195 12.2689 17.9589 12.6704L18.0194 13.5405C17.9437 13.5223 17.2686 12.8864 17.1687 12.786L16.7449 12.424C16.0184 11.8521 14.8892 11.0519 14.1142 10.6321C14.0264 10.5834 13.9537 10.5408 13.8629 10.4921L10.3846 8.76108C9.62774 8.43555 8.83156 9.12311 8.83156 9.67377C8.83156 10.0328 8.85275 10.1818 9.07375 10.5043C9.18576 10.6686 9.38858 10.8116 9.58233 10.8968C9.69737 10.9454 9.79424 10.982 9.9002 11.0276L11.2564 11.6695C11.6136 11.8429 13.1212 12.6552 13.4179 12.8591C13.8993 13.1846 14.2444 13.3641 14.7681 13.7596L15.7731 14.5567C15.9972 14.7331 16.972 15.6914 17.1203 15.9135Z" fill="white"/>
        <path fill-rule="evenodd" clip-rule="evenodd" d="M50.7838 33.9817C51.2954 33.9817 51.8403 33.9148 52.2188 33.787C52.4155 33.7231 52.6214 33.638 52.7849 33.5345C52.9302 33.4433 53.1239 33.2972 53.2359 33.1695L53.5659 32.6827C53.6446 32.5214 53.7445 32.2933 53.796 32.0955C53.9655 31.4232 54.02 30.2032 53.9231 29.4426C53.8384 28.8007 53.799 28.101 53.7294 27.4651C53.4721 25.1074 53.3661 23.1025 54.1229 20.8208C54.5649 19.4913 55.3762 18.3413 56.354 17.3586C56.7567 16.954 56.908 16.8414 56.908 16.2238C56.908 15.9592 56.7385 15.6671 56.566 15.4937C56.4872 15.4176 56.3631 15.3203 56.2511 15.2746C55.9211 15.1408 55.464 15.1682 55.1916 15.372C54.7375 15.7097 54.1593 16.3972 53.7687 16.8536C53.575 17.0818 53.4115 17.3404 53.2329 17.5837C52.7455 18.2409 52.3822 19.0197 52.0795 19.7833C51.7495 20.6108 51.5255 21.5448 51.4014 22.4362C51.3863 22.5579 51.3772 22.6796 51.356 22.8135C51.3378 22.9473 51.3499 23.0751 51.3287 23.209C51.1834 24.1825 51.3711 26.6407 51.4619 27.4834C51.5073 27.8911 51.5588 28.32 51.6012 28.7551C51.6527 29.2966 51.8827 30.9668 51.5255 31.4536C51.1138 32.0164 50.0663 31.5601 49.7031 31.2832C49.5517 31.1676 49.3882 31.0429 49.2581 30.9121C48.9523 30.5987 48.5588 30.1728 48.3317 29.8077C48.2681 29.7043 48.2379 29.6495 48.1652 29.5522C47.808 29.0745 47.584 28.5056 47.3176 27.9762C47.0996 27.5473 46.9119 26.9662 46.7696 26.4946C46.7333 26.3821 46.7 26.2999 46.6637 26.1782C46.3186 24.9583 46.2005 23.9878 46.0915 22.6857C46.0521 22.2111 46.1884 20.912 46.2853 20.4283C46.4518 19.5856 46.6516 18.6455 46.9997 17.8697L47.2419 17.2947C47.5113 16.7593 47.7505 16.2025 48.1349 15.7371C48.5255 15.2625 48.6526 15.083 49.1158 14.6905C49.7848 14.1277 49.6728 13.0811 48.8766 12.7191C48.4498 12.5214 48.0804 12.6278 47.7232 12.8956L47.0421 13.5071C46.6122 14.0273 46.1854 14.5445 45.8402 15.1225C45.707 15.3416 45.589 15.5667 45.4739 15.801C44.7413 17.2704 44.2388 18.8646 44.0027 20.5074C43.9179 21.0976 43.8634 21.7882 43.8422 22.4058L43.8816 23.3824C43.93 23.7049 43.9452 24 43.9906 24.3164C44.0329 24.5993 44.0784 24.9066 44.1268 25.1986C44.3448 26.4703 44.7353 27.5686 45.1985 28.749C45.5829 29.7286 46.252 30.8756 46.9119 31.6878C47.2631 32.1199 47.6354 32.4971 48.0623 32.847L48.4952 33.1755C48.9129 33.4798 49.3761 33.6866 49.8817 33.8448C50.0724 33.9026 50.5325 33.9817 50.7838 33.9817Z" fill="white"/>
        <path fill-rule="evenodd" clip-rule="evenodd" d="M26.732 52.841C26.962 52.841 27.2345 52.7345 27.3768 52.6432L27.8188 52.2416C28.3818 51.6666 28.9116 51.0643 29.3566 50.395L30.5191 48.1497C31.3032 45.9593 31.3758 44.0183 31.2002 41.6879L30.9187 39.035C30.8551 38.4752 30.5191 36.6924 31.2941 36.3912C31.3849 36.3547 31.6029 36.3152 31.724 36.3304C31.8541 36.3487 32.0146 36.37 32.1327 36.4034C32.2689 36.4399 32.3506 36.4856 32.4747 36.5373C33.4041 36.9267 34.3396 38.2896 34.7755 39.1111L35.0933 39.7499C35.3113 40.185 35.493 40.6718 35.6625 41.1281C36.1983 42.5762 36.4526 44.1613 36.4526 45.725C36.4526 47.1488 35.9985 49.3119 35.3567 50.6383C35.3174 50.7174 35.281 50.8117 35.2447 50.8939C34.9571 51.5632 34.4425 52.3968 33.9157 52.917C33.8491 52.984 33.8037 53.0387 33.7311 53.0996C33.3527 53.4038 32.9954 53.6959 32.9954 54.3074C32.9954 54.4351 33.0469 54.6298 33.0893 54.7241C33.2316 55.0375 33.5646 55.3813 33.9521 55.3813C34.4546 55.3813 34.5605 55.3387 34.9329 55.0375L35.2931 54.7241C35.3749 54.6542 35.4052 54.5812 35.4899 54.499L36.4405 53.3064C36.5707 53.13 36.6615 52.9627 36.7765 52.771C37.2246 52.0256 37.5666 51.2225 37.8391 50.395C37.9148 50.1698 37.9905 49.9903 38.0571 49.7652C38.4022 48.6426 38.6716 47.2279 38.6716 46.0353C38.6716 45.0496 38.6807 44.4868 38.5414 43.5163C38.5051 43.2729 38.4748 43.0965 38.4325 42.8622C38.1146 41.1737 37.5122 39.2936 36.6342 37.809L36.3527 37.3283C36.1196 36.9358 35.8199 36.6073 35.5414 36.2513L35.3628 36.0353C35.2477 35.9045 35.1115 35.7797 34.9844 35.655L34.5908 35.2869C34.4334 35.1378 34.2366 35.0131 34.061 34.8884C34.0187 34.861 33.9944 34.8366 33.946 34.8062C33.3708 34.4077 32.6957 34.146 31.9873 34.0913C31.5454 34.0578 31.6271 34.0974 31.282 34.0943C30.9096 34.0913 30.2921 34.2403 30.0378 34.3651L29.6805 34.5719C29.1538 34.9096 28.8692 35.4512 28.7088 36.0809C28.5907 36.5555 28.506 37.3009 28.5786 37.8272C28.5937 37.958 28.5756 38.0858 28.5877 38.2136L28.8268 40.4284C28.8965 40.9395 28.8874 41.3897 28.9631 41.9009C29.0115 42.2416 29.0357 43.0843 29.0357 43.4676C29.0357 44.5689 28.8541 46.1783 28.4545 47.2005C28.0428 48.2471 27.7158 48.8403 27.0468 49.7439C26.9802 49.8352 26.9499 49.8595 26.8803 49.9417L26.1901 50.687C25.8419 51.0338 25.6361 51.0977 25.6361 51.767C25.6361 52.2143 25.9206 52.5824 26.2809 52.7284C26.3778 52.7679 26.6018 52.841 26.732 52.841Z" fill="white"/>
        <path fill-rule="evenodd" clip-rule="evenodd" d="M47.3266 53.7719C46.8574 53.7719 46.5971 53.6776 46.2792 53.3551C45.8675 52.9383 45.8312 52.841 45.5557 52.3603C45.4285 52.1412 45.4406 52.1412 45.3468 51.8918C44.8745 50.6262 45.0834 49.1476 45.5315 47.9611C45.8221 47.1914 46.1036 46.7624 46.5729 46.1236L47.2661 45.3812C47.3509 45.3143 47.369 45.3021 47.4447 45.223C47.7444 44.9249 48.6163 44.4381 49.028 44.2738C49.3156 44.1582 49.8393 44.0305 50.2207 44.0305C50.2207 44.5385 50.142 45.0253 50.1087 45.4999C50.0724 46.0688 49.8181 47.7786 49.7212 48.2745C49.6789 48.5087 49.6395 48.7004 49.6001 48.9407C49.4972 49.5431 49.0007 51.6332 48.8494 52.1382C48.7343 52.5063 48.5376 52.9261 48.3045 53.1726C48.1107 53.3734 48.2348 53.3216 47.8958 53.5529C47.7444 53.6533 47.5658 53.7719 47.3266 53.7719ZM47.1299 56.0293C48.0411 56.0293 48.48 55.8711 49.1763 55.4026C49.4336 55.2322 49.6062 55.0801 49.8211 54.8671C49.8847 54.8002 49.8938 54.7911 49.9513 54.715C50.2995 54.2678 50.5174 53.994 50.7626 53.4129L50.9503 53.0083L51.3166 51.5693C51.5104 50.8422 51.798 49.4062 51.9312 48.6C52.3641 45.9836 52.5154 44.3104 52.5245 41.4628C52.5275 41.2376 52.4942 41.1312 52.4973 40.9273C52.5033 39.4488 52.2702 37.2796 52.0311 35.8315C51.9766 35.4938 51.91 35.2443 51.7193 35.0465C51.3863 34.7028 51.2319 34.6571 50.7838 34.6571C50.5174 34.6571 50.2631 34.7971 50.0845 34.9705C49.6001 35.436 49.7576 35.9927 49.8454 36.5069L50.0361 37.9215C50.0997 38.3748 50.1269 38.9559 50.1844 39.3818L50.248 40.5318C50.248 40.7144 50.2752 40.7752 50.2783 40.9243C50.2813 41.0551 50.2752 41.192 50.2752 41.3228C50.2783 41.4841 50.3055 41.5358 50.3055 41.7153C49.358 41.7153 47.9684 42.1655 47.1813 42.6432C46.7515 42.9018 46.1218 43.3277 45.7736 43.6867C45.6919 43.7719 45.6435 43.7932 45.5648 43.8692C45.4891 43.9392 45.4225 44.0061 45.3529 44.0791C45.2741 44.1613 45.253 44.21 45.1712 44.2921C45.0804 44.3834 45.0531 44.4199 44.9744 44.5172C44.5779 45.007 44.4477 45.1805 44.1359 45.7098L43.8513 46.2422C43.2459 47.3222 42.7494 49.1932 42.8584 50.4984C42.9068 51.0856 42.8584 51.3137 43.0339 51.9587C43.2701 52.8227 43.5516 53.4738 44.0572 54.207C44.1722 54.3743 44.2903 54.499 44.4174 54.6633C44.4568 54.715 44.4659 54.7241 44.5113 54.7637C44.5385 54.788 44.5355 54.782 44.5597 54.8032C44.9532 55.1592 45.2469 55.4726 45.8251 55.7038C46.034 55.7859 46.1823 55.8741 46.4124 55.9319C46.6062 55.9837 46.9089 56.0293 47.1299 56.0293Z" fill="white"/>
        <path fill-rule="evenodd" clip-rule="evenodd" d="M32.3506 24.0426C32.3506 22.3328 32.8774 19.1901 33.2951 17.5107C33.3648 17.2248 33.6887 15.8801 33.7734 15.6793C33.9097 15.3629 34.1034 15.0404 34.3123 14.7787C34.612 14.4045 35.06 14.1277 35.5595 14.2707C36.6009 14.5688 37.3184 15.9744 37.4365 17.0696C37.5061 17.7267 37.4698 18.0857 37.3729 18.755C37.3184 19.1353 37.1337 19.8716 36.9672 20.2123C36.8219 20.5165 36.6948 20.8512 36.498 21.1524C36.2407 21.5387 36.2498 21.557 35.9198 21.9829C35.5262 22.4879 34.7482 23.1937 34.1579 23.4889C33.2285 23.9513 32.4384 24.003 32.3506 24.0426ZM31.5908 33.3611C31.9934 33.3611 32.2174 33.282 32.4414 33.0569C32.6533 32.847 32.7775 32.6492 32.8077 32.3207C32.832 32.0347 32.7321 31.7 32.6745 31.3958C32.614 31.0672 32.5837 30.7812 32.5353 30.4375L32.2659 27.4043C32.2598 27.0392 32.2659 26.6681 32.2659 26.303C33.1952 26.2239 33.8067 26.0839 34.6453 25.728L35.0025 25.5759C35.4324 25.3599 35.5202 25.3142 35.941 25.0252C36.159 24.8761 36.5888 24.5476 36.7674 24.362C36.8764 24.2494 37.0308 24.1429 37.161 23.9939C37.8906 23.1633 38.4052 22.4697 38.8714 21.4475C38.9259 21.3258 38.9653 21.2284 39.0228 21.0915C39.4042 20.1727 39.713 19.0654 39.713 17.7754C39.713 16.7076 39.4648 15.5789 39.0288 14.7088C38.7836 14.222 38.3901 13.6075 38.0056 13.2241C37.3729 12.5913 36.4132 11.989 35.4687 11.989C34.6544 11.989 34.0429 12.1654 33.3799 12.5974C32.947 12.8804 32.4929 13.4158 32.1993 13.8387C32.0872 13.9999 31.7421 14.6084 31.6664 14.8031L31.4727 15.5393C31.3183 16.1721 31.1336 16.8019 30.9853 17.4773C30.9096 17.818 30.8672 18.1253 30.7885 18.466C30.7068 18.8159 30.6584 19.114 30.6008 19.4913C30.5524 19.8138 30.4767 20.1697 30.4222 20.5257C30.1165 22.5275 30.0287 24.578 30.0196 26.7259C30.0166 26.9419 30.0468 27.0331 30.0468 27.2339C30.0468 27.4043 30.0378 27.602 30.0468 27.7694C30.0529 27.8941 30.0711 27.888 30.0741 28.0219C30.1013 28.9437 30.1982 29.4548 30.2709 30.3127C30.3284 30.979 30.4374 31.5844 30.5373 32.2172C30.5948 32.5914 30.6432 32.78 30.8521 33.0021C31.0156 33.1725 31.2729 33.3611 31.5908 33.3611Z" fill="white"/>
        <path fill-rule="evenodd" clip-rule="evenodd" d="M58.4247 47.2492L58.7274 45.2656C58.7607 45.0162 58.7668 44.8062 58.8031 44.5507C58.8334 44.3317 58.8576 44.0609 58.8728 43.8601C58.9182 43.3246 58.9878 42.5702 58.9878 42.053C58.9878 41.8826 59.015 41.8491 59.015 41.6879C59.1906 41.6483 59.3632 41.5936 59.5266 41.554C59.7143 41.5054 59.8778 41.4597 60.0534 41.4019C60.2078 41.3502 60.3743 41.3076 60.5438 41.2468C60.7164 41.189 60.8617 41.122 61.0191 41.049C61.0978 41.0125 61.1674 40.9851 61.2371 40.9547C61.2704 40.9395 61.3158 40.9212 61.3521 40.903L62.3208 40.3493C62.4692 40.258 62.5751 40.1576 62.7265 40.0785C62.7265 40.3493 62.6902 40.4984 62.669 40.7296C62.6357 41.1251 62.451 42.202 62.3511 42.5549C61.9364 43.9696 61.7668 44.6024 60.8859 45.7433L60.5287 46.1175C60.456 46.1753 60.4137 46.2331 60.344 46.297C60.1261 46.4917 59.7416 46.7351 59.4843 46.875C59.3511 46.948 59.127 47.0302 58.9848 47.0788L58.4247 47.2492ZM65 38.1923L65 38.9164C64.997 39.3818 64.9879 39.7925 64.9697 39.9629L64.9062 40.7448C64.7124 42.0895 64.7185 42.2355 64.3764 43.5741C64.2613 44.0305 64.2492 44.0183 64.113 44.4381C63.9344 44.9857 63.6892 45.4938 63.4197 45.9988C63.0111 46.7624 62.3239 47.6021 61.6427 48.1376L61.0009 48.597C60.2411 49.0077 60.3622 48.9742 59.4419 49.2876C58.6457 49.5583 57.8526 49.5918 57.02 49.5918C56.3389 49.5918 55.7577 48.9559 55.9393 48.2532C55.9575 48.1862 55.9666 48.1224 55.9787 48.0676L56.463 45.1926C56.6689 43.7354 56.7415 42.5762 56.7415 41.0673L56.7113 39.9659C56.7143 39.8017 56.6901 39.7591 56.684 39.6283L56.5993 38.2166C56.5478 37.5656 56.4297 36.8598 56.3752 36.2118C56.3359 35.7432 56.2239 35.2534 56.4509 34.8458C56.5175 34.7241 56.5871 34.6358 56.687 34.5476C57.0957 34.2038 57.6316 34.1095 58.0736 34.4472C58.2219 34.5598 58.3642 34.718 58.4459 34.8944C58.5609 35.1378 58.6972 36.6377 58.7547 37.094L58.9605 39.3453C59.0786 39.3362 59.2814 39.2693 59.3844 39.2358C60.2471 38.9711 60.9858 38.5665 61.7002 38.0067L62.6781 37.1792C62.7416 37.1001 62.7295 37.1123 62.7265 36.9754L62.6478 36.0353C62.6266 35.8619 62.6266 35.7372 62.6054 35.5698C62.5206 34.9401 62.5328 34.6632 63.0413 34.2434C63.4833 33.8813 64.2795 33.9909 64.6428 34.5659C64.8093 34.8366 64.8456 35.3234 64.885 35.7067C64.9304 36.1448 64.9364 36.6012 64.9728 37.0301C64.9879 37.2218 64.997 37.6842 65 38.1923Z" fill="white"/>
        <path fill-rule="evenodd" clip-rule="evenodd" d="M23.0205 49.0016C23.4897 49.0016 23.8288 48.9742 24.2738 48.8768C24.5917 48.8038 24.9095 48.6882 25.1668 48.5574C25.7481 48.2653 26.2839 47.8911 26.7229 47.4135C26.7864 47.3435 26.7955 47.3131 26.8652 47.2431C27.516 46.5708 28.1639 45.2383 28.1639 44.286C28.1639 43.8023 28.2002 43.2121 28.0307 42.7801C27.5372 41.5236 27.1437 40.9942 25.8783 40.4284C24.9126 39.9933 23.9559 40.0816 22.9569 40.2124L21.8429 40.2763C21.0467 40.2763 20.5865 40.0724 20.1991 39.4123C20.1203 39.2784 20.0931 39.2297 20.0386 39.0654C19.8449 38.4722 19.751 37.9641 20.0326 37.3861C20.0901 37.2674 20.1536 37.1731 20.2475 37.094C20.3474 37.0119 20.4473 36.9419 20.5684 36.878C21.077 36.6194 21.6279 36.5555 22.3454 36.6073C23.0477 36.659 24.0952 36.9541 24.7067 37.3678C24.9126 37.5047 25.1305 37.6781 25.4665 37.6781C26.5322 37.6781 27.1437 36.2209 25.9872 35.5181C25.6119 35.2899 25.3909 35.1196 24.9368 34.937C23.7107 34.4442 23.1628 34.3468 21.7278 34.3468C20.862 34.3468 19.8146 34.6145 19.1486 35.1135C19.0517 35.1865 18.9548 35.2321 18.8701 35.3143C18.3161 35.8406 17.9589 36.3365 17.7742 37.091C17.5017 38.1862 17.5986 38.9559 18.0194 40.0238C18.2707 40.6596 18.7671 41.3563 19.3121 41.7731C20.1658 42.4272 21.1254 42.5397 22.1789 42.5093L23.0417 42.4424C23.2173 42.418 23.411 42.4363 23.6108 42.4211C23.7955 42.4059 23.962 42.3663 24.1739 42.3663C25.1305 42.3663 25.9449 42.8501 25.9449 43.8631C25.9449 44.5111 25.7451 45.007 25.3666 45.5121C25.0669 45.9136 24.7158 46.2453 24.2496 46.4795C23.7955 46.7046 23.4534 46.7412 22.9388 46.7412C22.0578 46.7412 21.2404 46.2909 20.6531 45.7037C20.4412 45.4908 20.1748 45.1439 20.0326 44.8884C19.857 44.569 19.7298 44.0609 19.5996 43.8844C18.8943 42.9292 17.5411 43.4403 17.5411 44.5385C17.5411 44.7576 17.5986 44.8793 17.6592 45.0436C17.7106 45.1865 17.7681 45.3417 17.8317 45.4908C17.9952 45.8528 18.2767 46.37 18.5189 46.6651C19.0638 47.3253 19.3302 47.6599 20.1234 48.1589C20.9226 48.6639 21.9731 49.0016 23.0205 49.0016Z" fill="white"/>
        <path fill-rule="evenodd" clip-rule="evenodd" d="M58.1159 27.9124L58.455 27.9124C59.8354 27.9124 61.6427 27.3313 62.342 28.5512C62.7477 29.2601 62.9626 30.5105 62.1241 31.0642C61.558 31.4353 60.9283 31.411 60.2532 31.411C59.4177 31.411 58.4913 31.0794 57.8586 30.6565C57.6013 30.4831 57.4257 30.3401 57.0503 30.3401C56.4903 30.3401 55.9544 30.8482 55.9544 31.4962C55.9544 32.1168 56.4146 32.418 56.8566 32.704C56.9504 32.7648 57.0322 32.7983 57.129 32.8561C57.5438 33.1116 58.5246 33.4341 59.012 33.5315C60.0352 33.7353 61.2916 33.7323 62.3208 33.4341C62.893 33.2698 63.226 33.0782 63.6407 32.7557C63.7679 32.6553 64.0373 32.3815 64.1312 32.2598C64.3915 31.9191 64.2462 32.1168 64.4218 31.8187C64.7487 31.2711 64.9455 30.547 64.9455 29.832C64.9455 29.041 64.6428 28.0523 64.2583 27.4134C64.1947 27.3069 64.1312 27.2157 64.0585 27.1092C63.4621 26.2452 62.3148 25.512 60.9555 25.512L60.5045 25.512C59.5297 25.512 57.7648 25.9379 57.1109 25.2777C56.9686 25.1347 56.8626 25.0496 56.7658 24.864C56.3752 24.0973 56.7294 23.209 57.1563 22.5701C57.5983 21.9038 58.4217 21.2771 59.3541 21.2771C60.3652 21.2771 61.5247 21.7608 62.118 22.564C62.4873 23.0599 62.5812 23.1937 62.7992 23.8296C62.8385 23.9513 62.8869 24.0578 62.9566 24.149C63.7437 25.156 65 24.508 65 23.5649C65 22.9504 64.561 22.1381 64.2583 21.6817C64.1796 21.56 64.0979 21.4505 64.0131 21.3379C63.9223 21.2132 63.8254 21.1098 63.7376 20.9942C63.6256 20.8481 63.2684 20.5135 63.1079 20.3857C62.9112 20.2305 62.4389 19.8837 62.2088 19.762C61.0161 19.1201 59.6568 18.8037 58.3127 19.1597C57.347 19.4152 56.6447 19.8046 55.9332 20.5226C55.5185 20.9364 55.1492 21.4627 54.8858 21.9829C54.3651 22.999 54.1199 24.7392 54.7284 25.7523C54.8616 25.9714 54.8374 26.0018 55.0644 26.3486C55.2218 26.5859 55.4065 26.7745 55.6214 26.9479C55.9121 27.1822 55.906 27.1974 56.2753 27.4195C56.6901 27.669 57.5377 27.9124 58.1159 27.9124Z" fill="white"/>
        <path fill-rule="evenodd" clip-rule="evenodd" d="M39.9945 33.7262C41.0057 33.7262 42.2045 33.5315 43.1581 33.2911L44.5264 32.8591C45.6556 32.3845 45.3771 30.6778 44.1238 30.6778C43.8241 30.6778 41.8291 31.4414 40.2458 31.4414C39.4557 31.4414 38.8442 31.4323 38.1721 31.0672C38.051 31.0003 38.0056 30.9486 37.8966 30.8634C37.3608 30.4405 37.3457 29.4274 37.7453 28.7307C37.7786 28.676 37.8391 28.5817 37.8815 28.5269C38.2932 28.0067 39.6888 26.8993 40.1187 26.3425C40.1792 26.2634 40.2186 26.2361 40.2821 26.1691C40.3336 26.1083 40.379 26.0444 40.4305 25.9805C41.0087 25.2382 41.3296 24.7149 41.7352 23.9026C41.7716 23.8296 41.8139 23.7505 41.8472 23.6775C42.1348 23.0355 42.4769 22.0955 42.6616 21.417C42.7615 21.0611 42.8372 20.7112 42.931 20.334C43.0279 19.9567 43.0854 19.5521 43.1611 19.181C43.2398 18.7885 43.594 16.1569 43.591 15.518C43.5879 15.0647 43.6455 14.6996 43.6455 14.1612C43.6455 13.4036 42.6616 12.6887 41.7867 13.4219C41.7352 13.4675 41.6565 13.571 41.6232 13.6257C41.4053 13.9847 41.4446 14.3802 41.4264 14.9248C41.4113 15.4785 41.2266 17.1457 41.154 17.6446C40.9693 18.9284 40.7635 20.0693 40.3548 21.3014C40.1308 21.9768 39.828 22.7557 39.4617 23.3672C39.1318 23.9178 39.1106 23.9604 38.72 24.4867C38.5233 24.7545 38.0692 25.2382 37.8361 25.4633L37.049 26.1691C36.5586 26.6681 36.4708 26.665 35.941 27.313C35.0843 28.3504 34.9995 30.2397 35.5717 31.4506C35.8956 32.132 36.5737 32.7892 37.2336 33.1116C37.3517 33.1695 37.4698 33.2333 37.6181 33.2911C38.3114 33.5589 39.1529 33.7262 39.9945 33.7262Z" fill="white"/>
        <path fill-rule="evenodd" clip-rule="evenodd" d="M38.4748 37.3131C38.8623 37.3131 39.0682 37.2248 39.4617 37.091C40.1096 36.8719 41.4174 36.5799 42.1015 36.5799C43.0097 36.5799 43.2216 36.5434 44.1147 36.8415C44.5657 36.9936 44.9714 37.4591 45.0653 37.8911C45.1773 38.4205 45.038 39.0502 44.708 39.4518C44.4083 39.8169 44.2176 39.9538 43.8907 40.2428C43.818 40.3067 43.7696 40.3706 43.6969 40.4405L43.0642 41.0186C42.5556 41.5266 42.5375 41.5692 42.1076 42.0621L41.9229 42.2994C41.7958 42.4576 41.6989 42.6067 41.5839 42.777C41.1086 43.495 40.7998 44.0913 40.4819 44.8914C39.9582 46.2148 39.8795 46.6408 39.5435 48.0128C39.4193 48.527 39.1378 50.2459 39.0954 50.7813C39.0197 51.7853 38.8684 52.774 38.8684 53.7993C38.8684 54.3317 39.3467 54.9006 39.937 54.9006C40.3154 54.9006 40.5152 54.8458 40.7726 54.5842C40.8634 54.4899 40.933 54.423 40.9966 54.2982C41.1691 53.9514 41.1025 53.346 41.1479 52.9292C41.1812 52.6493 41.2115 52.2812 41.2297 51.9922C41.2478 51.694 41.2902 51.3654 41.3144 51.0612C41.3659 50.4649 41.6111 49.0624 41.7413 48.4418C41.8684 47.8394 42.0016 47.4318 42.1681 46.8385C42.374 46.1053 42.8523 45.0314 43.258 44.3773C43.3306 44.2586 43.373 44.1674 43.4487 44.0609C43.5213 43.9574 43.5819 43.8753 43.6576 43.7597C43.8059 43.5346 44.0451 43.2668 44.2297 43.0661C44.4174 42.8622 44.5567 42.6523 44.8503 42.418L46.4185 40.9456C46.7303 40.5744 47.0027 40.1789 47.1632 39.6587C47.3963 38.8951 47.4054 37.8303 47.1511 37.0088C47.0451 36.6559 46.8362 36.3061 46.6213 36.017C46.5395 35.9075 46.4911 35.8375 46.3942 35.7372C45.8524 35.2017 45.5526 35.0222 44.8655 34.7302C44.7807 34.6967 44.7716 34.6845 44.6868 34.6571C43.482 34.2951 43.2731 34.3194 42.0168 34.3194C41.0753 34.3194 40.046 34.572 39.2862 34.7667C39.044 34.8275 38.2902 35.0466 38.0904 35.1469C37.9148 35.2352 37.7664 35.3538 37.6575 35.4999C37.2397 36.0596 37.4244 36.8932 38.0631 37.1914C38.1539 37.234 38.3628 37.3131 38.4748 37.3131Z" fill="white"/>
        <path fill-rule="evenodd" clip-rule="evenodd" d="M54.1835 49.1141C54.462 49.1141 54.8192 48.9377 54.9615 48.7947L55.1855 48.4844C55.349 48.1741 55.5458 46.5343 55.5851 46.1175C55.7123 44.7728 55.8697 43.4768 55.8697 41.9982C55.8697 41.5936 55.903 41.3319 55.8697 40.9517C55.8455 40.6322 55.8666 40.185 55.8697 39.8534L55.8122 38.8099C55.7607 37.7937 55.6668 36.802 55.5276 35.7919C55.461 35.3264 55.3429 35.0161 54.904 34.7788C54.2955 34.4533 53.4932 34.8001 53.3328 35.4968C53.2511 35.8558 53.4115 36.662 53.4509 37.1457C53.6809 39.9477 53.7566 41.9891 53.4569 44.7971C53.3691 45.6338 53.2965 46.3031 53.1602 47.1245C53.0543 47.7603 52.9181 48.3079 53.3903 48.7825C53.5841 48.9772 53.8807 49.1141 54.1835 49.1141Z" fill="white"/>
        <path fill-rule="evenodd" clip-rule="evenodd" d="M28.1063 33.3885C28.8208 33.3885 29.2598 32.9017 29.2598 32.1746C29.2598 31.9373 29.2022 31.7548 29.1659 31.5327C29.063 30.8999 28.8965 29.4639 28.8662 28.8433C28.8299 28.0888 28.7814 27.3465 28.7814 26.5829L28.8995 23.9908C28.9267 23.7292 28.957 23.4523 28.9812 23.1694C29.0236 22.6583 29.1084 22.0681 29.2053 21.5905L29.511 20.0632C29.511 19.5825 29.2265 19.1962 28.8178 19.038C28.3516 18.8524 27.9429 18.9163 27.5947 19.2661C27.2617 19.5978 27.1588 20.4526 27.0771 20.9455C27.0196 21.268 26.959 21.5752 26.9075 21.8764L26.5927 24.8366C26.5412 25.4329 26.5624 26.4368 26.5624 27.0362C26.5624 28.3352 26.6896 29.5461 26.8197 30.7295C26.8863 31.3167 26.9772 31.8917 27.068 32.4576C27.1528 32.9869 27.6099 33.3885 28.1063 33.3885Z" fill="white"/>
        <path fill-rule="evenodd" clip-rule="evenodd" d="M53.1148 53.8845C53.572 53.8845 53.9806 53.5802 54.1441 53.1665C54.1895 53.0509 54.2047 52.9596 54.244 52.844C54.2773 52.7345 54.3167 52.6128 54.35 52.4972C54.4408 52.1717 54.5589 51.4354 54.6557 51.0278C54.9433 49.7956 53.5296 49.0989 52.7667 49.9204C52.5245 50.182 52.5275 50.3524 52.4307 50.7387L52.1158 52.1747C52.0159 52.5763 51.9917 52.3755 51.9917 52.841C51.9917 53.1452 52.1764 53.4099 52.3338 53.5681C52.4942 53.7263 52.8121 53.8845 53.1148 53.8845Z" fill="white"/>
        <path fill-rule="evenodd" clip-rule="evenodd" d="M29.0055 18.4538C29.838 18.4538 30.065 17.6963 30.1952 17.0209C30.2133 16.9144 30.2285 16.7897 30.2557 16.6589C30.2799 16.5281 30.3132 16.4277 30.3435 16.2969C30.5282 15.5667 30.8067 14.9461 30.1074 14.3832C29.5958 13.9725 28.9267 14.1551 28.624 14.511C28.4394 14.7331 28.3304 15.0465 28.2547 15.3537C28.1094 15.9227 28.0579 16.2938 27.9399 16.8475C27.8551 17.2643 27.7582 17.7724 28.1941 18.1405C28.3425 18.2622 28.3183 18.2865 28.5393 18.3595C28.6634 18.3991 28.8571 18.4538 29.0055 18.4538Z" fill="white"/>
    </g>
    <defs>
        <filter id="filter0_d_91_375" x="0.152308" y="0.152308" width="68.6954" height="59.7247" filterUnits="userSpaceOnUse" color-interpolation-filters="sRGB">
            <feFlood flood-opacity="0" result="BackgroundImageFix"/>
            <feColorMatrix in="SourceAlpha" type="matrix" values="0 0 0 0 0 0 0 0 0 0 0 0 0 0 0 0 0 0 127 0" result="hardAlpha"/>
            <feOffset/>
            <feGaussianBlur stdDeviation="1.92385"/>
            <feComposite in2="hardAlpha" operator="out"/>
            <feColorMatrix type="matrix" values="0 0 0 0 1 0 0 0 0 1 0 0 0 0 1 0 0 0 1 0"/>
            <feBlend mode="normal" in2="BackgroundImageFix" result="effect1_dropShadow_91_375"/>
            <feBlend mode="normal" in="SourceGraphic" in2="effect1_dropShadow_91_375" result="shape"/>
        </filter>
    </defs>
</svg>
