<svg width="56" height="24" viewBox="0 0 56 24" fill="none" xmlns="http://www.w3.org/2000/svg">
<path d="M1.17414e-07 9.84616L45.1357 9.84616C43.3719 7.65812 41.4775 4.37607 39.4524 1.95139e-07L42.882 1.54241e-07C44.9724 2.52992 47.0955 4.71795 49.2512 6.56411C51.4069 8.41026 53.5953 9.91453 55.8164 11.0769L55.8164 12.9231C53.5953 14.0855 51.4069 15.5897 49.2512 17.4359C47.0955 19.2821 44.9724 21.4701 42.882 24L39.4524 24C40.4323 21.8804 41.3795 20 42.2941 18.359C43.2739 16.718 44.2212 15.3162 45.1357 14.1539L1.68783e-07 14.1539L1.17414e-07 9.84616Z" fill="#3965FF"/>
</svg>
