<svg width="24" height="24" viewBox="0 0 24 24" fill="none" xmlns="http://www.w3.org/2000/svg">
    <path fill-rule="evenodd" clip-rule="evenodd" d="M5.71236 0.0478359C4.92624 0.137991 4.00574 0.44254 3.30196 0.845356C1.48281 1.88648 0.282464 3.7073 0.0519185 5.7752C-0.0173062 6.39635 -0.0173062 17.5964 0.0519185 18.2176C0.387965 21.2318 2.76738 23.6119 5.7807 23.9481C6.40166 24.0173 17.5983 24.0173 18.2193 23.9481C21.2326 23.6119 23.612 21.2318 23.9481 18.2176C24.0173 17.5964 24.0173 6.39635 23.9481 5.7752C23.612 2.76098 21.2326 0.380843 18.2193 0.0446948C17.6678 -0.0168152 6.25116 -0.0139554 5.71236 0.0478359ZM19.2646 3.19291C19.968 3.40393 20.5047 4.02095 20.6243 4.75593C20.7655 5.62377 20.2364 6.52771 19.4014 6.84506C18.6879 7.11623 17.8399 6.92204 17.3228 6.36906C16.2404 5.21153 16.914 3.3397 18.4913 3.12221C18.6772 3.09656 19.0601 3.13159 19.2646 3.19291ZM18.585 4.52976C18.4346 4.56408 18.237 4.78026 18.2063 4.94421C18.1426 5.28392 18.4761 5.61753 18.8157 5.55382C19.042 5.51135 19.2305 5.29104 19.2305 5.0691C19.2305 4.96948 19.2058 4.84177 19.1756 4.78532C19.0783 4.60346 18.7965 4.48152 18.585 4.52976ZM12.8619 5.50258C14.3118 5.69559 15.5658 6.32012 16.621 7.37451C19.2003 9.95206 19.2003 14.0387 16.621 16.6188C14.0416 19.199 9.95841 19.199 7.379 16.6188C4.79969 14.0387 4.79969 9.95206 7.379 7.37451C8.854 5.90052 10.8169 5.23038 12.8619 5.50258ZM11.2219 6.90756C10.1313 7.07704 9.15415 7.57493 8.36704 8.36232C6.34991 10.3801 6.34991 13.6127 8.36704 15.6304C8.57452 15.838 8.92355 16.1272 9.14266 16.273C11.1993 17.6418 13.8883 17.3756 15.633 15.6304C17.6501 13.6127 17.6501 10.3801 15.633 8.36232C14.4658 7.19481 12.8349 6.65692 11.2219 6.90756Z" fill="white"/>
</svg>
