<svg width="24" height="24" viewBox="0 0 24 24" fill="none" xmlns="http://www.w3.org/2000/svg">
    <path fill-rule="evenodd" clip-rule="evenodd" d="M4.52195 0.15525C3.63914 0.663429 0.940077 3.7793 0.170975 5.17816C-0.011213 5.5095 -0.0182861 5.54191 0.0163832 5.88327C0.132984 7.02948 0.642414 8.67562 1.34566 10.1786C2.12087 11.8354 3.43177 13.8178 4.92362 15.5893C5.68442 16.4927 7.46745 18.2795 8.35326 19.0263C11.559 21.7287 14.7876 23.419 17.6974 23.9184C17.9592 23.9633 18.2465 24 18.336 24C18.6434 24 19.4904 23.4554 20.7691 22.4356C22.4204 21.1187 23.7198 19.8326 23.9426 19.2949C24.1208 18.8648 23.7708 18.4593 22.4893 17.6111C20.6306 16.3808 18.8995 15.4076 18.0815 15.1331C17.6985 15.0046 17.6686 15.002 17.4769 15.082C17.2183 15.1898 17.0478 15.354 16.3097 16.2054C15.9777 16.5884 15.5984 17.0058 15.4668 17.1329L15.2277 17.3641L14.885 17.2756C13.7684 16.9872 12.2603 16.1995 11.0081 15.2507C10.4541 14.8309 9.52124 13.9281 9.0056 13.3125C8.03368 12.1523 7.11175 10.477 6.74148 9.19832L6.62054 8.78052L6.91086 8.48325C7.07055 8.31975 7.46643 7.96146 7.79062 7.68707C8.53834 7.05423 8.80948 6.77363 8.91268 6.5257C8.98872 6.34302 8.98674 6.30187 8.88632 5.97686C8.58608 5.00491 6.39206 1.31116 5.59922 0.442714C5.15837 -0.0401786 4.95545 -0.0942858 4.52195 0.15525ZM12.8544 0.857143V1.71429L13.1089 1.71471C14.2249 1.71664 15.7072 2.07664 16.8581 2.62532C18.8239 3.56245 20.3091 5.01509 21.267 6.9375C21.8671 8.14216 22.1223 9.04912 22.2428 10.4062L22.3082 11.1429H23.1541H24V10.9075C24 10.4958 23.8956 9.58221 23.779 8.97321C23.4617 7.31684 22.5786 5.42695 21.528 4.15639C19.6082 1.83455 17.0356 0.423107 14.0971 0.0794465C13.7234 0.0357322 13.2909 0 13.136 0H12.8544V0.857143ZM12.8544 5.12748V5.98457L13.2776 6.01988C14.5276 6.12413 15.6129 6.64414 16.5249 7.5758C17.3919 8.4615 17.8747 9.50834 17.9786 10.7277L18.0139 11.1429H18.8636H19.7132V10.922C19.7132 10.183 19.3844 8.87368 19.013 8.1337C18.3593 6.83127 17.1991 5.65837 15.9355 5.02248C15.1389 4.62161 14.2462 4.37539 13.3423 4.30714L12.8544 4.27034V5.12748Z" fill="white"/>
</svg>
