<svg width="24" height="24" viewBox="0 0 24 24" fill="none" xmlns="http://www.w3.org/2000/svg">
    <path fill-rule="evenodd" clip-rule="evenodd" d="M11.1313 0.0077587C9.31679 0.184341 7.94856 0.575892 6.46459 1.34309C4.19914 2.51436 2.36982 4.37817 1.23876 6.66755C0.804226 7.54713 0.599433 8.08626 0.37232 8.94886C0.0859956 10.036 0.00263129 10.697 4.67117e-05 11.8998C-0.00122208 12.4986 0.0234959 13.1486 0.0571894 13.4014C0.313391 15.3241 0.917242 16.9811 1.92715 18.5325L2.26376 19.0495L1.51602 21.2538C1.10474 22.4661 0.774762 23.4645 0.782703 23.4725C0.790692 23.4804 1.81931 23.1605 3.06855 22.7614C4.31784 22.3623 5.35665 22.0358 5.37709 22.0358C5.39754 22.0358 5.59039 22.1452 5.80566 22.2788C6.02093 22.4124 6.47197 22.6531 6.80796 22.8137C9.8462 24.2657 13.3193 24.39 16.4303 23.158C19.9551 21.7621 22.6625 18.7084 23.6289 15.0384C23.9249 13.9144 24 13.2982 24 11.9937C24 10.6891 23.9249 10.0729 23.6289 8.94886C22.4952 4.64353 19.0396 1.29696 14.6792 0.281478C13.9465 0.110855 13.1842 0.0244174 12.2591 0.00710173C11.7422 -0.00261196 11.2346 -0.0023304 11.1313 0.0077587ZM8.26524 5.57614C8.34306 5.61645 8.45208 5.73072 8.50758 5.83001C8.64766 6.08078 9.79009 8.82844 9.82336 8.99466C9.86594 9.20728 9.65772 9.56875 9.19061 10.0932C8.70316 10.6404 8.59842 10.8161 8.64179 11.0134C8.7206 11.3715 9.80739 12.8108 10.477 13.4437C11.516 14.4259 13.0866 15.3585 13.7863 15.4089C14.1461 15.4349 14.2773 15.3332 14.8277 14.6016C15.0774 14.2698 15.3437 13.9362 15.4195 13.8606C15.6007 13.6796 15.8698 13.6412 16.1716 13.7533C16.5586 13.8972 18.9248 15.0479 19.091 15.1731L19.2501 15.2929L19.2238 15.7901C19.1564 17.0666 18.7081 17.7294 17.5222 18.3057C16.3948 18.8536 15.5123 18.8387 13.7846 18.2423C11.4666 17.4423 10.2363 16.6781 8.56914 15.0028C7.73493 14.1646 7.14212 13.4559 6.46407 12.4864C5.34678 10.8887 4.91831 9.655 5.04584 8.40287C5.1481 7.39894 5.49941 6.65783 6.20895 5.94935C6.55218 5.60655 7.00134 5.46544 7.67732 5.48797C7.96411 5.49749 8.17436 5.52903 8.26524 5.57614Z" fill="white"/>
</svg>
