<svg width="34" height="24" viewBox="0 0 34 24" fill="none" xmlns="http://www.w3.org/2000/svg">
    <path fill-rule="evenodd" clip-rule="evenodd" d="M6.07617 0.0665614C4.27696 0.325432 2.53825 1.34341 1.44487 2.778C1.03155 3.32034 0.444324 4.51391 0.270406 5.16513C0.0218477 6.09591 0 6.64753 0 11.995C0 17.3424 0.0218477 17.894 0.270406 18.8248C0.444324 19.476 1.03155 20.6696 1.44487 21.2119C2.56009 22.6752 4.27537 23.6671 6.1382 23.9258C6.85087 24.0247 27.1491 24.0247 27.8618 23.9258C29.7246 23.6671 31.4399 22.6752 32.5551 21.2119C32.9684 20.6696 33.5557 19.476 33.7296 18.8248C33.9782 17.894 34 17.3424 34 11.995C34 6.64753 33.9782 6.09591 33.7296 5.16513C33.5557 4.51391 32.9684 3.32034 32.5551 2.778C31.4399 1.3147 29.7246 0.322846 27.8618 0.0641078C27.2353 -0.0228896 6.6818 -0.020635 6.07617 0.0665614ZM17.4716 9.41799C20.0063 10.6995 22.1473 11.8087 22.2295 11.883C22.4089 12.0452 22.4193 12.1999 22.2627 12.3764C22.166 12.4854 13.4556 16.6742 12.8572 16.8995C12.7054 16.9567 12.6331 16.9504 12.5086 16.8689L12.3516 16.7662V12.0067C12.3516 8.39331 12.3708 7.22807 12.4312 7.16766C12.4751 7.12389 12.5902 7.08809 12.687 7.08809C12.7868 7.08809 14.8612 8.09824 17.4716 9.41799Z" fill="white"/>
</svg>
